<?xml version="1.0" standalone="no"?><!DOCTYPE svg PUBLIC "-//W3C//DTD SVG 1.1//EN" "http://www.w3.org/Graphics/SVG/1.1/DTD/svg11.dtd"><svg t="1640313547239" class="icon" viewBox="0 0 1391 1024" version="1.1" xmlns="http://www.w3.org/2000/svg" p-id="8483" xmlns:xlink="http://www.w3.org/1999/xlink" width="271.6796875" height="200"><defs><style type="text/css"></style></defs><path d="M1364.576513 285.442796L706.538703 2.545153a32.701363 32.701363 0 0 0-25.297281 0L23.203612 285.442796a42.881976 42.881976 0 0 0 0 76.200346l658.03781 282.897643a30.850343 30.850343 0 0 0 24.988777 0l511.807186-220.271447v225.207502a96.870076 96.870076 0 0 0 0 165.66634v78.668374h67.253747v-78.668374a96.870076 96.870076 0 0 0 0-165.66634v-253.898321l79.285381-34.24388a42.881976 42.881976 0 0 0 0-75.891843zM693.890062 701.305415a73.423816 73.423816 0 0 1-29.307825-6.170068l-410.309558-176.46396v243.717707c0 199.601717 299.248324 259.451382 392.724862 259.451382h92.551029c70.030278 0 392.724863-59.849665 392.724862-259.451382v-243.717707l-410.309558 176.772463a73.115312 73.115312 0 0 1-30.850342 5.861565z" p-id="8484"></path></svg>